<svg class="border shadow-md" viewBox="0 0 519.2 519.2" style="width: 519.2px; height: 519.2px;" xmlns="http://www.w3.org/2000/svg" preserveAspectRatio="none"><rect class="bg" id="bg" x="0" y="0" width="519.2" height="519.2" fill="#ffffff"/><path d="M 0 -34.61333333333334 L 0 -34.61&#10;                L 34.61 -1.61&#10;                L 103.84 -34.61 L 103.84 -34.61&#10;                L 177.84 -17.31&#10;                L 207.68 -34.61 L 207.68 -34.61&#10;                L 255.68 -17.31&#10;                L 311.52 -34.61 L 311.52 -34.61&#10;                L 346.13 -17.31&#10;                L 415.36 -34.61 L 415.36 -34.61&#10;                L 471.36 -6.61&#10;                L 519.2 -34.61 L 519.2 -34.61&#10;                L 553.81 -17.31&#10;                L 623.0400000000001 -34.61  V 519.20 H 0 V -34.61 Z" fill="#C4BDAC"/><path d="M 0 0 L 0 0.00&#10;                L 46.00 33.00&#10;                L 103.84 0.00 L 103.84 0.00&#10;                L 155.84 34.00&#10;                L 207.68 0.00 L 207.68 0.00&#10;                L 242.29 17.31&#10;                L 311.52 0.00 L 311.52 0.00&#10;                L 368.52 33.00&#10;                L 415.36 0.00 L 415.36 0.00&#10;                L 449.97 17.31&#10;                L 519.2 0.00 L 519.2 0.00&#10;                L 573.20 32.00&#10;                L 623.0400000000001 0.00  V 519.20 H 0 V 0.00 Z" fill="#b8b3a6"/><path d="M 0 34.61333333333334 L -103.84 34.61&#10;                L -34.84 64.61&#10;                L 0 34.61 L 0 34.61&#10;                L 34.61 51.92&#10;                L 103.84 34.61 L 103.84 34.61&#10;                L 153.84 63.61&#10;                L 207.68 34.61 L 207.67999999999998 34.61&#10;                L 242.29 62.61&#10;                L 311.52 34.61 L 311.52 34.61&#10;                L 369.52 51.92&#10;                L 415.36 34.61 L 415.36 34.61&#10;                L 483.36 51.92&#10;                L 519.2 34.61  V 519.20 H 0 V 34.61 Z" fill="#aca9a0"/><path d="M 0 69.22666666666667 L 0 69.23&#10;                L 44.00 86.53&#10;                L 103.84 69.23 L 103.84 69.23&#10;                L 171.84 96.23&#10;                L 207.68 69.23 L 207.68 69.23&#10;                L 242.29 94.23&#10;                L 311.52 69.23 L 311.52 69.23&#10;                L 380.52 93.23&#10;                L 415.36 69.23 L 415.36 69.23&#10;                L 456.36 86.53&#10;                L 519.2 69.23 L 519.2 69.23&#10;                L 569.20 86.53&#10;                L 623.0400000000001 69.23  V 519.20 H 0 V 69.23 Z" fill="#a09f9a"/><path d="M 0 103.84 L -103.84 103.84&#10;                L -40.84 121.15&#10;                L 0 103.84 L 0 103.84&#10;                L 34.61 137.84&#10;                L 103.84 103.84 L 103.84 103.84&#10;                L 171.84 121.15&#10;                L 207.68 103.84 L 207.67999999999998 103.84&#10;                L 247.68 133.84&#10;                L 311.52 103.84 L 311.52 103.84&#10;                L 380.52 129.84&#10;                L 415.36 103.84 L 415.36 103.84&#10;                L 459.36 121.15&#10;                L 519.2 103.84  V 519.20 H 0 V 103.84 Z" fill="#949594"/><path d="M 0 138.45333333333335 L 0 138.45&#10;                L 59.00 167.45&#10;                L 103.84 138.45 L 103.84 138.45&#10;                L 138.45 169.45&#10;                L 207.68 138.45 L 207.68 138.45&#10;                L 260.68 155.76&#10;                L 311.52 138.45 L 311.52 138.45&#10;                L 354.52 155.76&#10;                L 415.36 138.45 L 415.36 138.45&#10;                L 449.97 164.45&#10;                L 519.2 138.45 L 519.2 138.45&#10;                L 553.81 164.45&#10;                L 623.0400000000001 138.45  V 519.20 H 0 V 138.45 Z" fill="#888b8e"/><path d="M 0 173.0666666666667 L -103.84 173.07&#10;                L -69.23 196.07&#10;                L 0 173.07 L 0 173.07&#10;                L 63.00 194.07&#10;                L 103.84 173.07 L 103.84 173.07&#10;                L 175.84 190.37&#10;                L 207.68 173.07 L 207.67999999999998 173.07&#10;                L 242.29 190.37&#10;                L 311.52 173.07 L 311.52 173.07&#10;                L 346.13 200.07&#10;                L 415.36 173.07 L 415.36 173.07&#10;                L 449.97 190.37&#10;                L 519.2 173.07  V 519.20 H 0 V 173.07 Z" fill="#7c8188"/><path d="M 0 207.68 L 0 207.68&#10;                L 34.61 240.68&#10;                L 103.84 207.68 L 103.84 207.68&#10;                L 168.84 237.68&#10;                L 207.68 207.68 L 207.68 207.68&#10;                L 276.68 230.68&#10;                L 311.52 207.68 L 311.52 207.68&#10;                L 346.13 230.68&#10;                L 415.36 207.68 L 415.36 207.68&#10;                L 484.36 236.68&#10;                L 519.2 207.68 L 519.2 207.68&#10;                L 567.20 228.68&#10;                L 623.0400000000001 207.68  V 519.20 H 0 V 207.68 Z" fill="#707782"/><path d="M 0 242.29333333333335 L -103.84 242.29&#10;                L -30.84 259.60&#10;                L 0 242.29 L 0 242.29&#10;                L 49.00 271.29&#10;                L 103.84 242.29 L 103.84 242.29&#10;                L 153.84 265.29&#10;                L 207.68 242.29 L 207.67999999999998 242.29&#10;                L 254.68 259.60&#10;                L 311.52 242.29 L 311.52 242.29&#10;                L 365.52 275.29&#10;                L 415.36 242.29 L 415.36 242.29&#10;                L 458.36 259.60&#10;                L 519.2 242.29  V 519.20 H 0 V 242.29 Z" fill="#646d7c"/><path d="M 0 276.9066666666667 L 0 276.91&#10;                L 56.00 304.91&#10;                L 103.84 276.91 L 103.84 276.91&#10;                L 174.84 294.21&#10;                L 207.68 276.91 L 207.68 276.91&#10;                L 267.68 294.21&#10;                L 311.52 276.91 L 311.52 276.91&#10;                L 352.52 307.91&#10;                L 415.36 276.91 L 415.36 276.91&#10;                L 449.97 294.21&#10;                L 519.2 276.91 L 519.2 276.91&#10;                L 595.20 309.91&#10;                L 623.0400000000001 276.91  V 519.20 H 0 V 276.91 Z" fill="#586376"/><path d="M 0 311.52000000000004 L -103.84 311.52&#10;                L -69.23 328.83&#10;                L 0 311.52 L 0 311.52&#10;                L 34.61 328.83&#10;                L 103.84 311.52 L 103.84 311.52&#10;                L 155.84 328.83&#10;                L 207.68 311.52 L 207.67999999999998 311.52&#10;                L 242.29 328.83&#10;                L 311.52 311.52 L 311.52 311.52&#10;                L 346.13 342.52&#10;                L 415.36 311.52 L 415.36 311.52&#10;                L 449.97 342.52&#10;                L 519.2 311.52  V 519.20 H 0 V 311.52 Z" fill="#4c5970"/><path d="M 0 346.1333333333334 L 0 346.13&#10;                L 76.00 363.44&#10;                L 103.84 346.13 L 103.84 346.13&#10;                L 174.84 376.13&#10;                L 207.68 346.13 L 207.68 346.13&#10;                L 242.29 363.44&#10;                L 311.52 346.13 L 311.52 346.13&#10;                L 376.52 363.44&#10;                L 415.36 346.13 L 415.36 346.13&#10;                L 473.36 363.44&#10;                L 519.2 346.13 L 519.2 346.13&#10;                L 581.20 363.44&#10;                L 623.0400000000001 346.13  V 519.20 H 0 V 346.13 Z" fill="#404f6a"/><path d="M 0 380.7466666666667 L -103.84 380.75&#10;                L -69.23 411.75&#10;                L 0 380.75 L 0 380.75&#10;                L 34.61 402.75&#10;                L 103.84 380.75 L 103.84 380.75&#10;                L 138.45 398.05&#10;                L 207.68 380.75 L 207.67999999999998 380.75&#10;                L 242.29 398.05&#10;                L 311.52 380.75 L 311.52 380.75&#10;                L 346.13 413.75&#10;                L 415.36 380.75 L 415.36 380.75&#10;                L 467.36 404.75&#10;                L 519.2 380.75  V 519.20 H 0 V 380.75 Z" fill="#344564"/><path d="M 0 415.36 L 0 415.36&#10;                L 35.00 432.67&#10;                L 103.84 415.36 L 103.84 415.36&#10;                L 138.45 432.67&#10;                L 207.68 415.36 L 207.68 415.36&#10;                L 256.68 432.67&#10;                L 311.52 415.36 L 311.52 415.36&#10;                L 350.52 432.67&#10;                L 415.36 415.36 L 415.36 415.36&#10;                L 449.97 432.67&#10;                L 519.2 415.36 L 519.2 415.36&#10;                L 571.20 435.36&#10;                L 623.0400000000001 415.36  V 519.20 H 0 V 415.36 Z" fill="#283b5e"/><path d="M 0 449.97333333333336 L -103.84 449.97&#10;                L -41.84 467.28&#10;                L 0 449.97 L 0 449.97&#10;                L 35.00 467.28&#10;                L 103.84 449.97 L 103.84 449.97&#10;                L 138.45 469.97&#10;                L 207.68 449.97 L 207.67999999999998 449.97&#10;                L 284.68 481.97&#10;                L 311.52 449.97 L 311.52 449.97&#10;                L 371.52 467.28&#10;                L 415.36 449.97 L 415.36 449.97&#10;                L 449.97 478.97&#10;                L 519.2 449.97  V 519.20 H 0 V 449.97 Z" fill="#1c3158"/><path d="M 0 484.5866666666667 L 0 484.59&#10;                L 38.00 514.59&#10;                L 103.84 484.59 L 103.84 484.59&#10;                L 138.45 503.59&#10;                L 207.68 484.59 L 207.68 484.59&#10;                L 273.68 501.89&#10;                L 311.52 484.59 L 311.52 484.59&#10;                L 371.52 501.89&#10;                L 415.36 484.59 L 415.36 484.59&#10;                L 486.36 513.59&#10;                L 519.2 484.59 L 519.2 484.59&#10;                L 553.81 501.89&#10;                L 623.0400000000001 484.59  V 519.20 H 0 V 484.59 Z" fill="#102752"/></svg>